<?xml version="1.0" encoding="UTF-8" standalone="no"?>
<svg
   xmlns:dc="http://purl.org/dc/elements/1.1/"
   xmlns:cc="http://creativecommons.org/ns#"
   xmlns:rdf="http://www.w3.org/1999/02/22-rdf-syntax-ns#"
   xmlns:svg="http://www.w3.org/2000/svg"
   xmlns="http://www.w3.org/2000/svg"
   xmlns:sodipodi="http://sodipodi.sourceforge.net/DTD/sodipodi-0.dtd"
   xmlns:inkscape="http://www.inkscape.org/namespaces/inkscape"
   sodipodi:docname="logo.svg"
   inkscape:version="1.0 (4035a4fb49, 2020-05-01)"
   id="svg8"
   version="1.1"
   viewBox="0 0 147.6252 150.09631"
   height="150.09631mm"
   width="147.6252mm">
  <defs
     id="defs2" />
  <sodipodi:namedview
     inkscape:window-maximized="0"
     inkscape:window-y="0"
     inkscape:window-x="64"
     inkscape:window-height="1030"
     inkscape:window-width="1424"
     fit-margin-bottom="0"
     fit-margin-right="0"
     fit-margin-left="0"
     fit-margin-top="0"
     showgrid="false"
     inkscape:document-rotation="0"
     inkscape:current-layer="layer1"
     inkscape:document-units="mm"
     inkscape:cy="305.53196"
     inkscape:cx="164.35696"
     inkscape:zoom="0.98994949"
     inkscape:pageshadow="2"
     inkscape:pageopacity="0.0"
     borderopacity="1.0"
     bordercolor="#666666"
     pagecolor="#ffffff"
     id="base" />
  <metadata
     id="metadata5">
    <rdf:RDF>
      <cc:Work
         rdf:about="">
        <dc:format>image/svg+xml</dc:format>
        <dc:type
           rdf:resource="http://purl.org/dc/dcmitype/StillImage" />
        <dc:title></dc:title>
      </cc:Work>
    </rdf:RDF>
  </metadata>
  <g
     transform="translate(-23.3681,-62.449715)"
     id="layer1"
     inkscape:groupmode="layer"
     inkscape:label="Layer 1">
    <path
       id="path24"
       d="m 81.777194,205.4559 c -13.297108,-6.8534 -13.878041,-7.03833 -21.527813,-6.8534 -7.817796,0.18902 -7.939392,0.14649 -21.661806,-7.54241 l -13.79988,-7.73241 -0.870531,-12.6914 c -1.235354,-18.01019 -0.567368,-22.71263 3.877395,-27.29594 l 3.617078,-3.72985 0.371817,-16.87914 0.371775,-16.8791 5.148158,-2.48655 c 2.831482,-1.36761 9.073252,-4.798989 13.870592,-7.625363 7.07226,-4.166636 9.09783,-5.979951 10.706648,-9.584591 1.091314,-2.445152 3.127763,-5.506522 4.525445,-6.803102 3.052254,-2.831387 28.599792,-16.902929 30.688105,-16.902929 1.722601,0 22.025583,10.612238 28.499893,14.896754 2.76211,1.827917 5.09232,4.53499 6.12482,7.115436 2.15158,5.377303 5.5223,8.111784 19.12281,15.513254 l 11.13861,6.061721 0.45706,17.01216 0.45711,17.01217 3.75706,3.13651 c 3.4394,2.87135 3.79586,3.74613 4.21616,10.34658 0.25244,3.96552 0.11229,12.30105 -0.3121,18.52334 l -0.77114,11.31323 -4.60301,2.57289 c -23.7775,13.29057 -24.78317,13.70353 -31.51464,12.94196 -6.18808,-0.70012 -6.72675,-0.53339 -20.96416,6.48908 -8.03707,3.96418 -15.208408,7.18665 -15.936269,7.16107 -0.72787,-0.025 -7.473046,-3.21613 -14.989282,-7.08997 z m 25.326876,-9.46134 c 4.45655,-2.44961 8.25879,-4.60992 8.44944,-4.80056 0.19068,-0.19069 -2.39317,-2.16586 -5.74191,-4.38929 l -6.0886,-4.04259 7.9e-4,-19.03256 7.6e-4,-19.03255 15.29703,-8.00394 c 8.41334,-4.40218 16.34843,-8.00393 17.63354,-8.00393 1.28506,0 4.53265,1.06697 7.21685,2.37106 6.51396,3.16471 7.9452,2.39133 8.80361,-4.75693 1.57281,-13.09731 1.89765,-12.45989 -9.18686,-18.02689 -5.45261,-2.73845 -10.11065,-4.97904 -10.3512,-4.97904 -0.24034,0 -0.67099,2.81774 -0.9566,6.26157 -0.64642,7.79484 -1.70453,8.72541 -21.3752,18.79829 l -14.445121,7.39701 -13.000918,-7.12053 C 66.33561,119.30976 63.428907,116.59326 62.451026,109.09333 c -0.415629,-3.18781 -0.979689,-5.79599 -1.253446,-5.79599 -0.273762,0 -4.727813,2.09793 -9.897889,4.66201 l -9.400144,4.662 v 9.72453 c 0,11.45252 0.89196,12.37495 8.426614,8.71432 2.684185,-1.30409 5.927224,-2.37106 7.206749,-2.37106 2.294546,0 13.535504,5.35352 27.293806,12.99874 l 7.047477,3.91615 -0.543146,18.81421 c -0.330718,11.4554 -0.988304,18.96255 -1.681288,19.19355 -0.625975,0.20862 -3.401615,1.98864 -6.168082,3.95553 l -5.029939,3.57614 7.943678,4.54485 c 4.369018,2.49965 8.992663,4.59327 10.274746,4.65248 1.282103,0.0592 5.977358,-1.89655 10.433908,-4.34623 z M 71.351669,181.97305 c 8.637824,-4.50327 10.296101,-6.86191 10.274624,-14.61389 -0.02586,-9.34384 -0.719394,-9.76284 -8.944032,-5.40389 -3.956983,2.09712 -7.615945,4.92057 -8.394398,6.47753 -1.470878,2.94181 -1.978137,18.10466 -0.584505,17.47193 0.455394,-0.20696 3.897136,-1.97605 7.648311,-3.93168 z m 59.971121,-4.00745 c 0,-6.49235 -0.45047,-8.70372 -2.23516,-10.9726 -2.21091,-2.81071 -14.02248,-9.16632 -15.07642,-8.11237 -1.37587,1.37582 -1.472,13.59183 -0.12685,16.11882 1.24201,2.33333 14.26115,11.01426 16.61043,11.07556 0.45539,0.0125 0.828,-3.63734 0.828,-8.10941 z m -80.479469,2.33508 c 0.188558,-7.90976 -0.267337,-12.35862 -1.408548,-13.74512 -1.068464,-1.29813 -12.469702,-8.05869 -13.590448,-8.05869 -1.073688,0 -0.568795,15.60089 0.573998,17.73623 1.037115,1.93787 11.49709,8.72434 13.485154,8.7492 0.455398,0.005 0.878329,-2.10105 0.939844,-4.68162 z m 105.595249,-2.249 c 2.17048,-1.9886 2.48396,-3.36617 2.48396,-10.91531 0,-4.75171 -0.22656,-8.6395 -0.50342,-8.6395 -1.28064,0 -12.34573,6.99144 -13.57246,8.57571 -1.40536,1.81503 -1.97179,15.85627 -0.69131,17.1368 0.88916,0.88913 9.06585,-3.20991 12.28323,-6.1577 z m -5.96143,-27.80546 c 2.78247,-2.09562 1.97713,-2.96998 -6.64547,-7.2149 l -7.44489,-3.6651 -8.05196,4.31202 c -4.42855,2.37159 -8.05196,4.56933 -8.05196,4.8838 0,0.69453 3.16981,2.74848 10.45423,6.77412 l 5.48625,3.03192 6.10562,-3.29178 c 3.35812,-1.81044 7.0248,-3.984 8.14818,-4.83008 z m -84.262247,3.26883 c 4.235206,-2.1328 7.700376,-4.30688 7.700376,-4.8312 0,-0.52436 -3.577011,-2.83305 -7.948909,-5.13041 l -7.948906,-4.17704 -8.090695,4.16494 c -6.503998,3.3481 -7.845534,4.46029 -6.840627,5.67113 1.638068,1.97375 12.212083,8.12477 14.020842,8.15607 0.77415,0.0125 4.872715,-1.72069 9.107919,-3.85349 z M 91.842974,105.29316 C 91.312601,102.22829 87.46965,99.127488 78.582547,94.593639 l -4.667278,-2.381042 v 7.126493 c 0,10.15238 1.00732,11.94763 9.594419,17.09949 l 7.51743,4.51008 0.665094,-6.34167 c 0.365808,-3.48793 0.433641,-7.67915 0.150756,-9.31383 z m 18.508896,11.50034 c 8.25262,-4.79631 10.26049,-8.66387 9.70312,-18.689785 l -0.3242,-5.829944 -7.32907,4.395369 c -4.03099,2.417462 -7.71869,5.27037 -8.19491,6.33979 -1.01685,2.28344 -2.39847,17.95254 -1.58294,17.95238 0.30626,-5e-5 3.78384,-1.87557 7.72791,-4.16781 z m -4.08957,-29.072336 7.6357,-4.53627 -3.1555,-2.143953 c -1.73553,-1.179167 -5.54133,-3.382153 -8.45732,-4.895535 l -5.301826,-2.751597 -6.290096,3.547839 c -11.485139,6.478024 -11.280359,5.685952 -2.787451,10.781531 4.145499,2.487225 8.253571,4.524932 9.129036,4.528227 0.875488,0.0031 5.027857,-2.035286 9.227457,-4.530242 z"
       style="fill:#000000;stroke-width:1.10399" />
  </g>
</svg>
